<svg width="319" height="90" viewBox="0 0 319 90" fill="none" xmlns="http://www.w3.org/2000/svg">
<rect x="7.5" y="11.5" width="302" height="72" rx="9.5" fill="white" stroke="#633403"/>
<rect y="24" width="319" height="47" rx="10" fill="white"/>
<rect x="20" width="278" height="90" rx="10" fill="white"/>
<path d="M20 20L26.619 16.5M298 13L291.381 16.5M20 13L26.619 16.5M298 20L291.381 16.5M26.619 16.5L33.2381 13L39.8571 16.5M26.619 16.5L33.2381 20L39.8571 16.5M39.8571 16.5L46.4762 13L53.0952 16.5M39.8571 16.5L46.4762 20L53.0952 16.5M53.0952 16.5L59.7143 13L66.3333 16.5M53.0952 16.5L59.7143 20L66.3333 16.5M66.3333 16.5L72.9524 13L79.5714 16.5M66.3333 16.5L72.9524 20L79.5714 16.5M79.5714 16.5L86.1905 13L92.8095 16.5M79.5714 16.5L86.1905 20L92.8095 16.5M92.8095 16.5L99.4286 13L106.048 16.5M92.8095 16.5L99.4286 20L106.048 16.5M106.048 16.5L112.667 13L119.286 16.5M106.048 16.5L112.667 20L119.286 16.5M119.286 16.5L125.905 13L132.524 16.5M119.286 16.5L125.905 20L132.524 16.5M132.524 16.5L139.143 13L145.762 16.5M132.524 16.5L139.143 20L145.762 16.5M145.762 16.5L152.381 13L159 16.5M145.762 16.5L152.381 20L159 16.5M159 16.5L165.619 13L172.238 16.5M159 16.5L165.619 20L172.238 16.5M172.238 16.5L178.857 13L185.476 16.5M172.238 16.5L178.857 20L185.476 16.5M185.476 16.5L192.095 13L198.714 16.5M185.476 16.5L192.095 20L198.714 16.5M198.714 16.5L205.333 13L211.952 16.5M198.714 16.5L205.333 20L211.952 16.5M211.952 16.5L218.571 13L225.19 16.5M211.952 16.5L218.571 20L225.19 16.5M225.19 16.5L231.81 13L238.429 16.5M225.19 16.5L231.81 20L238.429 16.5M238.429 16.5L245.048 13L251.667 16.5M238.429 16.5L245.048 20L251.667 16.5M251.667 16.5L258.286 13L264.905 16.5M251.667 16.5L258.286 20L264.905 16.5M264.905 16.5L271.524 13L278.143 16.5M264.905 16.5L271.524 20L278.143 16.5M278.143 16.5L284.762 13L291.381 16.5M278.143 16.5L284.762 20L291.381 16.5" stroke="#633403"/>
<path d="M20 81L26.619 77.5M298 74L291.381 77.5M20 74L26.619 77.5M298 81L291.381 77.5M26.619 77.5L33.2381 74L39.8571 77.5M26.619 77.5L33.2381 81L39.8571 77.5M39.8571 77.5L46.4762 74L53.0952 77.5M39.8571 77.5L46.4762 81L53.0952 77.5M53.0952 77.5L59.7143 74L66.3333 77.5M53.0952 77.5L59.7143 81L66.3333 77.5M66.3333 77.5L72.9524 74L79.5714 77.5M66.3333 77.5L72.9524 81L79.5714 77.5M79.5714 77.5L86.1905 74L92.8095 77.5M79.5714 77.5L86.1905 81L92.8095 77.5M92.8095 77.5L99.4286 74L106.048 77.5M92.8095 77.5L99.4286 81L106.048 77.5M106.048 77.5L112.667 74L119.286 77.5M106.048 77.5L112.667 81L119.286 77.5M119.286 77.5L125.905 74L132.524 77.5M119.286 77.5L125.905 81L132.524 77.5M132.524 77.5L139.143 74L145.762 77.5M132.524 77.5L139.143 81L145.762 77.5M145.762 77.5L152.381 74L159 77.5M145.762 77.5L152.381 81L159 77.5M159 77.5L165.619 74L172.238 77.5M159 77.5L165.619 81L172.238 77.5M172.238 77.5L178.857 74L185.476 77.5M172.238 77.5L178.857 81L185.476 77.5M185.476 77.5L192.095 74L198.714 77.5M185.476 77.5L192.095 81L198.714 77.5M198.714 77.5L205.333 74L211.952 77.5M198.714 77.5L205.333 81L211.952 77.5M211.952 77.5L218.571 74L225.19 77.5M211.952 77.5L218.571 81L225.19 77.5M225.19 77.5L231.81 74L238.429 77.5M225.19 77.5L231.81 81L238.429 77.5M238.429 77.5L245.048 74L251.667 77.5M238.429 77.5L245.048 81L251.667 77.5M251.667 77.5L258.286 74L264.905 77.5M251.667 77.5L258.286 81L264.905 77.5M264.905 77.5L271.524 74L278.143 77.5M264.905 77.5L271.524 81L278.143 77.5M278.143 77.5L284.762 74L291.381 77.5M278.143 77.5L284.762 81L291.381 77.5" stroke="#633403"/>
<path d="M305 79.1904L301.5 72.5714M298 13L301.5 19.619M298 79.1904L301.5 72.5714M305 13L301.5 19.619M301.5 72.5714L298 65.9523L301.5 59.3333M301.5 72.5714L305 65.9523L301.5 59.3333M301.5 59.3333L298 52.7142L301.5 46.0952M301.5 59.3333L305 52.7142L301.5 46.0952M301.5 46.0952L298 39.4761L301.5 32.8571M301.5 46.0952L305 39.4761L301.5 32.8571M301.5 32.8571L298 26.2381L301.5 19.619M301.5 32.8571L305 26.2381L301.5 19.619" stroke="#633403"/>
<path d="M10 76.5713L13.5 69.9522M17 76.5713L13.5 69.9522M13.5 69.9522L10 63.3332L13.5 56.7141M13.5 69.9522L17 63.3332L13.5 56.7141M13.5 56.7141L10 50.0951L13.5 43.4761M13.5 56.7141L17 50.0951L13.5 43.4761M13.5 43.4761L10 36.857L13.5 30.238M13.5 43.4761L17 36.857L13.5 30.238M13.5 30.238L10 23.6189L13.5 16.9999L17 23.6189L13.5 30.238Z" stroke="#633403"/>
</svg>
