<svg width="319" height="90" viewBox="0 0 319 90" fill="none" xmlns="http://www.w3.org/2000/svg">
<rect x="7.5" y="11.5" width="302" height="72" rx="9.5" fill="white" stroke="#633403"/>
<rect y="24" width="319" height="47" rx="10" fill="white"/>
<rect x="20" width="278" height="90" rx="10" fill="white"/>
<path d="M20 20L26.619 16.5M298 13L291.381 16.5M20 13L26.619 16.5M298 20L291.381 16.5M26.619 16.5L33.2381 13L39.8571 16.5M26.619 16.5L33.2381 20L39.8571 16.5M39.8571 16.5L46.4762 13L53.0952 16.5M39.8571 16.5L46.4762 20L53.0952 16.5M53.0952 16.5L59.7143 13L66.3333 16.5M53.0952 16.5L59.7143 20L66.3333 16.5M66.3333 16.5L72.9524 13L79.5714 16.5M66.3333 16.5L72.9524 20L79.5714 16.5M79.5714 16.5L86.1905 13L92.8095 16.5M79.5714 16.5L86.1905 20L92.8095 16.5M92.8095 16.5L99.4286 13L106.048 16.5M92.8095 16.5L99.4286 20L106.048 16.5M106.048 16.5L112.667 13L119.286 16.5M106.048 16.5L112.667 20L119.286 16.5M119.286 16.5L125.905 13L132.524 16.5M119.286 16.5L125.905 20L132.524 16.5M132.524 16.5L139.143 13L145.762 16.5M132.524 16.5L139.143 20L145.762 16.5M145.762 16.5L152.381 13L159 16.5M145.762 16.5L152.381 20L159 16.5M159 16.5L165.619 13L172.238 16.5M159 16.5L165.619 20L172.238 16.5M172.238 16.5L178.857 13L185.476 16.5M172.238 16.5L178.857 20L185.476 16.5M185.476 16.5L192.095 13L198.714 16.5M185.476 16.5L192.095 20L198.714 16.5M198.714 16.5L205.333 13L211.952 16.5M198.714 16.5L205.333 20L211.952 16.5M211.952 16.5L218.571 13L225.19 16.5M211.952 16.5L218.571 20L225.19 16.5M225.19 16.5L231.81 13L238.429 16.5M225.19 16.5L231.81 20L238.429 16.5M238.429 16.5L245.048 13L251.667 16.5M238.429 16.5L245.048 20L251.667 16.5M251.667 16.5L258.286 13L264.905 16.5M251.667 16.5L258.286 20L264.905 16.5M264.905 16.5L271.524 13L278.143 16.5M264.905 16.5L271.524 20L278.143 16.5M278.143 16.5L284.762 13L291.381 16.5M278.143 16.5L284.762 20L291.381 16.5" stroke="#633403"/>
<path d="M20 81L26.619 77.5M298 74L291.381 77.5M20 74L26.619 77.5M298 81L291.381 77.5M26.619 77.5L33.2381 74L39.8571 77.5M26.619 77.5L33.2381 81L39.8571 77.5M39.8571 77.5L46.4762 74L53.0952 77.5M39.8571 77.5L46.4762 81L53.0952 77.5M53.0952 77.5L59.7143 74L66.3333 77.5M53.0952 77.5L59.7143 81L66.3333 77.5M66.3333 77.5L72.9524 74L79.5714 77.5M66.3333 77.5L72.9524 81L79.5714 77.5M79.5714 77.5L86.1905 74L92.8095 77.5M79.5714 77.5L86.1905 81L92.8095 77.5M92.8095 77.5L99.4286 74L106.048 77.5M92.8095 77.5L99.4286 81L106.048 77.5M106.048 77.5L112.667 74L119.286 77.5M106.048 77.5L112.667 81L119.286 77.5M119.286 77.5L125.905 74L132.524 77.5M119.286 77.5L125.905 81L132.524 77.5M132.524 77.5L139.143 74L145.762 77.5M132.524 77.5L139.143 81L145.762 77.5M145.762 77.5L152.381 74L159 77.5M145.762 77.5L152.381 81L159 77.5M159 77.5L165.619 74L172.238 77.5M159 77.5L165.619 81L172.238 77.5M172.238 77.5L178.857 74L185.476 77.5M172.238 77.5L178.857 81L185.476 77.5M185.476 77.5L192.095 74L198.714 77.5M185.476 77.5L192.095 81L198.714 77.5M198.714 77.5L205.333 74L211.952 77.5M198.714 77.5L205.333 81L211.952 77.5M211.952 77.5L218.571 74L225.19 77.5M211.952 77.5L218.571 81L225.19 77.5M225.19 77.5L231.81 74L238.429 77.5M225.19 77.5L231.81 81L238.429 77.5M238.429 77.5L245.048 74L251.667 77.5M238.429 77.5L245.048 81L251.667 77.5M251.667 77.5L258.286 74L264.905 77.5M251.667 77.5L258.286 81L264.905 77.5M264.905 77.5L271.524 74L278.143 77.5M264.905 77.5L271.524 81L278.143 77.5M278.143 77.5L284.762 74L291.381 77.5M278.143 77.5L284.762 81L291.381 77.5" stroke="#633403"/>
<path d="M305 79.1904L301.5 72.5714M298 13L301.5 19.619M298 79.1904L301.5 72.5714M305 13L301.5 19.619M301.5 72.5714L298 65.9523L301.5 59.3333M301.5 72.5714L305 65.9523L301.5 59.3333M301.5 59.3333L298 52.7142L301.5 46.0952M301.5 59.3333L305 52.7142L301.5 46.0952M301.5 46.0952L298 39.4761L301.5 32.8571M301.5 46.0952L305 39.4761L301.5 32.8571M301.5 32.8571L298 26.2381L301.5 19.619M301.5 32.8571L305 26.2381L301.5 19.619" stroke="#633403"/>
<path d="M10 76.5713L13.5 69.9522M17 76.5713L13.5 69.9522M13.5 69.9522L10 63.3332L13.5 56.7141M13.5 69.9522L17 63.3332L13.5 56.7141M13.5 56.7141L10 50.0951L13.5 43.4761M13.5 56.7141L17 50.0951L13.5 43.4761M13.5 43.4761L10 36.857L13.5 30.238M13.5 43.4761L17 36.857L13.5 30.238M13.5 30.238L10 23.6189L13.5 16.9999L17 23.6189L13.5 30.238Z" stroke="#633403"/>
<path d="M109.488 36.8672C111.699 36.8672 113.312 37.3203 114.328 38.2266C115.344 39.1328 115.852 40.4023 115.852 42.0352C115.852 42.7773 115.734 43.4844 115.5 44.1562C115.273 44.8203 114.898 45.4102 114.375 45.9258C113.852 46.4336 113.16 46.8359 112.301 47.1328C111.449 47.4297 110.398 47.5781 109.148 47.5781H107.32V54H104.508V36.8672H109.488ZM109.301 39.1992H107.32V45.2344H108.855C109.738 45.2344 110.488 45.1328 111.105 44.9297C111.723 44.7188 112.191 44.3867 112.512 43.9336C112.832 43.4805 112.992 42.8828 112.992 42.1406C112.992 41.1484 112.691 40.4102 112.09 39.9258C111.496 39.4414 110.566 39.1992 109.301 39.1992ZM121.758 54H118.992V35.7656H121.758V54ZM130.781 40.7812C132.422 40.7812 133.66 41.1445 134.496 41.8711C135.34 42.5977 135.762 43.7305 135.762 45.2695V54H133.805L133.277 52.1602H133.184C132.816 52.6289 132.438 53.0156 132.047 53.3203C131.656 53.625 131.203 53.8516 130.688 54C130.18 54.1562 129.559 54.2344 128.824 54.2344C128.051 54.2344 127.359 54.0938 126.75 53.8125C126.141 53.5234 125.66 53.0859 125.309 52.5C124.957 51.9141 124.781 51.1719 124.781 50.2734C124.781 48.9375 125.277 47.9336 126.27 47.2617C127.27 46.5898 128.777 46.2188 130.793 46.1484L133.043 46.0664V45.3867C133.043 44.4883 132.832 43.8477 132.41 43.4648C131.996 43.082 131.41 42.8906 130.652 42.8906C130.004 42.8906 129.375 42.9844 128.766 43.1719C128.156 43.3594 127.562 43.5898 126.984 43.8633L126.094 41.918C126.727 41.582 127.445 41.3086 128.25 41.0977C129.062 40.8867 129.906 40.7812 130.781 40.7812ZM133.031 47.8008L131.355 47.8594C129.98 47.9062 129.016 48.1406 128.461 48.5625C127.906 48.9844 127.629 49.5625 127.629 50.2969C127.629 50.9375 127.82 51.4062 128.203 51.7031C128.586 51.9922 129.09 52.1367 129.715 52.1367C130.668 52.1367 131.457 51.8672 132.082 51.3281C132.715 50.7812 133.031 49.9805 133.031 48.9258V47.8008ZM137.66 41.0273H140.66L143.32 48.4336C143.438 48.7695 143.543 49.1016 143.637 49.4297C143.738 49.75 143.824 50.0664 143.895 50.3789C143.973 50.6914 144.035 51.0039 144.082 51.3164H144.152C144.23 50.9102 144.34 50.457 144.48 49.957C144.629 49.4492 144.793 48.9414 144.973 48.4336L147.527 41.0273H150.492L144.926 55.7812C144.605 56.625 144.211 57.3438 143.742 57.9375C143.281 58.5391 142.734 58.9922 142.102 59.2969C141.469 59.6094 140.746 59.7656 139.934 59.7656C139.543 59.7656 139.203 59.7422 138.914 59.6953C138.625 59.6562 138.379 59.6133 138.176 59.5664V57.3633C138.34 57.4023 138.547 57.4375 138.797 57.4688C139.047 57.5 139.305 57.5156 139.57 57.5156C140.062 57.5156 140.488 57.418 140.848 57.2227C141.207 57.0273 141.512 56.75 141.762 56.3906C142.012 56.0391 142.219 55.6367 142.383 55.1836L142.84 53.9648L137.66 41.0273ZM173.273 54H169.816L161.426 40.3242H161.32C161.352 40.7852 161.379 41.2734 161.402 41.7891C161.434 42.3047 161.457 42.8359 161.473 43.3828C161.496 43.9297 161.516 44.4844 161.531 45.0469V54H158.977V36.8672H162.41L170.789 50.4492H170.871C170.855 50.0508 170.836 49.5938 170.812 49.0781C170.789 48.5625 170.766 48.0312 170.742 47.4844C170.727 46.9297 170.715 46.3945 170.707 45.8789V36.8672H173.273V54ZM188.977 47.4844C188.977 48.5625 188.836 49.5195 188.555 50.3555C188.273 51.1914 187.863 51.8984 187.324 52.4766C186.785 53.0469 186.137 53.4844 185.379 53.7891C184.621 54.0859 183.766 54.2344 182.812 54.2344C181.922 54.2344 181.105 54.0859 180.363 53.7891C179.621 53.4844 178.977 53.0469 178.43 52.4766C177.891 51.8984 177.473 51.1914 177.176 50.3555C176.879 49.5195 176.73 48.5625 176.73 47.4844C176.73 46.0547 176.977 44.8438 177.469 43.8516C177.969 42.8516 178.68 42.0898 179.602 41.5664C180.523 41.043 181.621 40.7812 182.895 40.7812C184.09 40.7812 185.145 41.043 186.059 41.5664C186.973 42.0898 187.688 42.8516 188.203 43.8516C188.719 44.8516 188.977 46.0625 188.977 47.4844ZM179.566 47.4844C179.566 48.4297 179.68 49.2383 179.906 49.9102C180.141 50.582 180.5 51.0977 180.984 51.457C181.469 51.8086 182.094 51.9844 182.859 51.9844C183.625 51.9844 184.25 51.8086 184.734 51.457C185.219 51.0977 185.574 50.582 185.801 49.9102C186.027 49.2383 186.141 48.4297 186.141 47.4844C186.141 46.5391 186.027 45.7383 185.801 45.082C185.574 44.418 185.219 43.9141 184.734 43.5703C184.25 43.2188 183.621 43.043 182.848 43.043C181.707 43.043 180.875 43.4258 180.352 44.1914C179.828 44.957 179.566 46.0547 179.566 47.4844ZM202.746 53.9883L201.105 47.9531C201.027 47.6562 200.934 47.2969 200.824 46.875C200.715 46.4531 200.605 46.0195 200.496 45.5742C200.387 45.1211 200.285 44.7031 200.191 44.3203C200.105 43.9375 200.039 43.6406 199.992 43.4297H199.898C199.859 43.6406 199.797 43.9375 199.711 44.3203C199.625 44.7031 199.527 45.1211 199.418 45.5742C199.309 46.0273 199.199 46.4688 199.09 46.8984C198.988 47.3281 198.895 47.6953 198.809 48L197.086 53.9883H194.062L190.43 41.0156H193.219L194.906 47.4609C195.016 47.8984 195.121 48.3711 195.223 48.8789C195.332 49.3867 195.426 49.8711 195.504 50.332C195.582 50.793 195.641 51.1719 195.68 51.4688H195.773C195.805 51.2578 195.848 50.9922 195.902 50.6719C195.957 50.3438 196.02 50.0039 196.09 49.6523C196.16 49.293 196.23 48.957 196.301 48.6445C196.371 48.3242 196.438 48.0664 196.5 47.8711L198.492 41.0156H201.504L203.414 47.8711C203.5 48.168 203.594 48.543 203.695 48.9961C203.797 49.4414 203.887 49.8906 203.965 50.3438C204.051 50.7891 204.105 51.1602 204.129 51.457H204.223C204.254 51.1914 204.309 50.832 204.387 50.3789C204.473 49.918 204.57 49.4297 204.68 48.9141C204.789 48.3906 204.902 47.9062 205.02 47.4609L206.742 41.0156H209.484L205.828 53.9883H202.746Z" fill="#633403"/>
</svg>
