<svg width="48" height="48" viewBox="0 0 48 48" fill="none" xmlns="http://www.w3.org/2000/svg">
<path d="M24 4C12.954 4 4 12.954 4 24C4 35.046 12.954 44 24 44C35.046 44 44 35.046 44 24C44 12.954 35.046 4 24 4Z" fill="url(#paint0_linear_90_308)"/>
<path d="M26.7071 29.3009H31.8831L32.6961 24.0429H26.7071V21.1689C26.7071 18.9849 27.4211 17.0479 29.4641 17.0479H32.7471V12.4599C32.1701 12.3819 30.9501 12.2119 28.6451 12.2119C23.8311 12.2119 21.0091 14.7539 21.0091 20.5459V24.0439H16.0601V29.3019H21.0081V43.7539C21.9881 43.8999 22.9811 43.9999 24.0001 43.9999C24.9211 43.9999 25.8201 43.9159 26.7071 43.7959V29.3009Z" fill="white"/>
<defs>
<linearGradient id="paint0_linear_90_308" x1="9.993" y1="9.993" x2="40.615" y2="40.615" gradientUnits="userSpaceOnUse">
<stop stop-color="#2AA4F4"/>
<stop offset="1" stop-color="#007AD9"/>
</linearGradient>
</defs>
</svg>
