<svg width="109" height="45" viewBox="0 0 109 45" fill="none" xmlns="http://www.w3.org/2000/svg">
<rect x="0.5" y="0.5" width="108" height="44" rx="22" fill="#D9D9D9" fill-opacity="0.04" stroke="black"/>
<path d="M25.2791 14.0977C25.2791 17.0253 22.8885 19.4015 19.9357 19.4015C16.9829 19.4015 14.5923 17.0253 14.5923 14.0977C14.5923 11.1702 16.9829 8.79395 19.9357 8.79395C22.8885 8.79395 25.2791 11.1702 25.2791 14.0977Z" fill="#2A8E1A" stroke="black" stroke-width="0.5"/>
<path d="M39.0477 14.0977C39.0477 17.0253 36.657 19.4015 33.7043 19.4015C30.7515 19.4015 28.3608 17.0253 28.3608 14.0977C28.3608 11.1702 30.7515 8.79395 33.7043 8.79395C36.657 8.79395 39.0477 11.1702 39.0477 14.0977Z" fill="#FFF500" stroke="black" stroke-width="0.5"/>
<path d="M52.8157 14.0977C52.8157 17.0253 50.4251 19.4015 47.4723 19.4015C44.5196 19.4015 42.1289 17.0253 42.1289 14.0977C42.1289 11.1702 44.5196 8.79395 47.4723 8.79395C50.4251 8.79395 52.8157 11.1702 52.8157 14.0977Z" fill="#FF0000" stroke="black" stroke-width="0.5"/>
<path d="M66.5843 14.0977C66.5843 17.0253 64.1936 19.4015 61.2409 19.4015C58.2881 19.4015 55.8975 17.0253 55.8975 14.0977C55.8975 11.1702 58.2881 8.79395 61.2409 8.79395C64.1936 8.79395 66.5843 11.1702 66.5843 14.0977Z" fill="white" stroke="black" stroke-width="0.5"/>
<path d="M80.3529 14.0977C80.3529 17.0253 77.9622 19.4015 75.0094 19.4015C72.0567 19.4015 69.666 17.0253 69.666 14.0977C69.666 11.1702 72.0567 8.79395 75.0094 8.79395C77.9622 8.79395 80.3529 11.1702 80.3529 14.0977Z" fill="white" stroke="black" stroke-width="0.5"/>
<path d="M94.1214 14.0977C94.1214 17.0253 91.7308 19.4015 88.778 19.4015C85.8252 19.4015 83.4346 17.0253 83.4346 14.0977C83.4346 11.1702 85.8252 8.79395 88.778 8.79395C91.7308 8.79395 94.1214 11.1702 94.1214 14.0977Z" fill="white" stroke="black" stroke-width="0.5"/>
<path d="M25.2791 30.9015C25.2791 33.829 22.8885 36.2053 19.9357 36.2053C16.9829 36.2053 14.5923 33.829 14.5923 30.9015C14.5923 27.9739 16.9829 25.5977 19.9357 25.5977C22.8885 25.5977 25.2791 27.9739 25.2791 30.9015Z" fill="white" stroke="black" stroke-width="0.5"/>
<path d="M39.0477 30.9015C39.0477 33.829 36.657 36.2053 33.7043 36.2053C30.7515 36.2053 28.3608 33.829 28.3608 30.9015C28.3608 27.9739 30.7515 25.5977 33.7043 25.5977C36.657 25.5977 39.0477 27.9739 39.0477 30.9015Z" fill="white" stroke="black" stroke-width="0.5"/>
<path d="M52.8157 30.9015C52.8157 33.829 50.4251 36.2053 47.4723 36.2053C44.5196 36.2053 42.1289 33.829 42.1289 30.9015C42.1289 27.9739 44.5196 25.5977 47.4723 25.5977C50.4251 25.5977 52.8157 27.9739 52.8157 30.9015Z" fill="white" stroke="black" stroke-width="0.5"/>
<path d="M66.5843 30.9015C66.5843 33.829 64.1936 36.2053 61.2409 36.2053C58.2881 36.2053 55.8975 33.829 55.8975 30.9015C55.8975 27.9739 58.2881 25.5977 61.2409 25.5977C64.1936 25.5977 66.5843 27.9739 66.5843 30.9015Z" fill="#2A8E1A" stroke="black" stroke-width="0.5"/>
<path d="M80.3529 30.9015C80.3529 33.829 77.9622 36.2053 75.0094 36.2053C72.0567 36.2053 69.666 33.829 69.666 30.9015C69.666 27.9739 72.0567 25.5977 75.0094 25.5977C77.9622 25.5977 80.3529 27.9739 80.3529 30.9015Z" fill="#FFF500" stroke="black" stroke-width="0.5"/>
<path d="M94.1214 30.9015C94.1214 33.829 91.7308 36.2053 88.778 36.2053C85.8252 36.2053 83.4346 33.829 83.4346 30.9015C83.4346 27.9739 85.8252 25.5977 88.778 25.5977C91.7308 25.5977 94.1214 27.9739 94.1214 30.9015Z" fill="#FF0000" stroke="black" stroke-width="0.5"/>
</svg>
