<svg width="194" height="73" viewBox="0 0 194 73" fill="none" xmlns="http://www.w3.org/2000/svg">
<rect x="4.75684" y="9.42188" width="183.27" height="58.2111" rx="9.5" fill="white" stroke="#633403"/>
<rect y="19.4668" width="194" height="38.1222" rx="10" fill="white"/>
<rect x="12.1631" width="169.066" height="73" rx="10" fill="white"/>
<path d="M12.1631 16.2227L16.1885 13.3838M181.229 10.5449L177.204 13.3838M12.1631 10.5449L16.1885 13.3838M181.229 16.2227L177.204 13.3838M16.1885 13.3838L20.2138 10.5449L24.2392 13.3838M16.1885 13.3838L20.2138 16.2227L24.2392 13.3838M24.2392 13.3838L28.2646 10.5449L32.29 13.3838M24.2392 13.3838L28.2646 16.2227L32.29 13.3838M32.29 13.3838L36.3153 10.5449L40.3407 13.3838M32.29 13.3838L36.3153 16.2227L40.3407 13.3838M40.3407 13.3838L44.3661 10.5449L48.3915 13.3838M40.3407 13.3838L44.3661 16.2227L48.3915 13.3838M48.3915 13.3838L52.4169 10.5449L56.4422 13.3838M48.3915 13.3838L52.4169 16.2227L56.4422 13.3838M56.4422 13.3838L60.4676 10.5449L64.493 13.3838M56.4422 13.3838L60.4676 16.2227L64.493 13.3838M64.493 13.3838L68.5184 10.5449L72.5437 13.3838M64.493 13.3838L68.5184 16.2227L72.5437 13.3838M72.5437 13.3838L76.5691 10.5449L80.5945 13.3838M72.5437 13.3838L76.5691 16.2227L80.5945 13.3838M80.5945 13.3838L84.6199 10.5449L88.6452 13.3838M80.5945 13.3838L84.6199 16.2227L88.6452 13.3838M88.6452 13.3838L92.6706 10.5449L96.696 13.3838M88.6452 13.3838L92.6706 16.2227L96.696 13.3838M96.696 13.3838L100.721 10.5449L104.747 13.3838M96.696 13.3838L100.721 16.2227L104.747 13.3838M104.747 13.3838L108.772 10.5449L112.798 13.3838M104.747 13.3838L108.772 16.2227L112.798 13.3838M112.798 13.3838L116.823 10.5449L120.848 13.3838M112.798 13.3838L116.823 16.2227L120.848 13.3838M120.848 13.3838L124.874 10.5449L128.899 13.3838M120.848 13.3838L124.874 16.2227L128.899 13.3838M128.899 13.3838L132.924 10.5449L136.95 13.3838M128.899 13.3838L132.924 16.2227L136.95 13.3838M136.95 13.3838L140.975 10.5449L145.001 13.3838M136.95 13.3838L140.975 16.2227L145.001 13.3838M145.001 13.3838L149.026 10.5449L153.051 13.3838M145.001 13.3838L149.026 16.2227L153.051 13.3838M153.051 13.3838L157.077 10.5449L161.102 13.3838M153.051 13.3838L157.077 16.2227L161.102 13.3838M161.102 13.3838L165.127 10.5449L169.153 13.3838M161.102 13.3838L165.127 16.2227L169.153 13.3838M169.153 13.3838L173.178 10.5449L177.204 13.3838M169.153 13.3838L173.178 16.2227L177.204 13.3838" stroke="#633403"/>
<path d="M12.1631 65.7002L16.1885 62.8614M181.229 60.0225L177.204 62.8614M12.1631 60.0225L16.1885 62.8614M181.229 65.7002L177.204 62.8614M16.1885 62.8614L20.2138 60.0225L24.2392 62.8614M16.1885 62.8614L20.2138 65.7002L24.2392 62.8614M24.2392 62.8614L28.2646 60.0225L32.29 62.8614M24.2392 62.8614L28.2646 65.7002L32.29 62.8614M32.29 62.8614L36.3153 60.0225L40.3407 62.8614M32.29 62.8614L36.3153 65.7002L40.3407 62.8614M40.3407 62.8614L44.3661 60.0225L48.3915 62.8614M40.3407 62.8614L44.3661 65.7002L48.3915 62.8614M48.3915 62.8614L52.4169 60.0225L56.4422 62.8614M48.3915 62.8614L52.4169 65.7002L56.4422 62.8614M56.4422 62.8614L60.4676 60.0225L64.493 62.8614M56.4422 62.8614L60.4676 65.7002L64.493 62.8614M64.493 62.8614L68.5184 60.0225L72.5437 62.8614M64.493 62.8614L68.5184 65.7002L72.5437 62.8614M72.5437 62.8614L76.5691 60.0225L80.5945 62.8614M72.5437 62.8614L76.5691 65.7002L80.5945 62.8614M80.5945 62.8614L84.6199 60.0225L88.6452 62.8614M80.5945 62.8614L84.6199 65.7002L88.6452 62.8614M88.6452 62.8614L92.6706 60.0225L96.696 62.8614M88.6452 62.8614L92.6706 65.7002L96.696 62.8614M96.696 62.8614L100.721 60.0225L104.747 62.8614M96.696 62.8614L100.721 65.7002L104.747 62.8614M104.747 62.8614L108.772 60.0225L112.798 62.8614M104.747 62.8614L108.772 65.7002L112.798 62.8614M112.798 62.8614L116.823 60.0225L120.848 62.8614M112.798 62.8614L116.823 65.7002L120.848 62.8614M120.848 62.8614L124.874 60.0225L128.899 62.8614M120.848 62.8614L124.874 65.7002L128.899 62.8614M128.899 62.8614L132.924 60.0225L136.95 62.8614M128.899 62.8614L132.924 65.7002L136.95 62.8614M136.95 62.8614L140.975 60.0225L145.001 62.8614M136.95 62.8614L140.975 65.7002L145.001 62.8614M145.001 62.8614L149.026 60.0225L153.051 62.8614M145.001 62.8614L149.026 65.7002L153.051 62.8614M153.051 62.8614L157.077 60.0225L161.102 62.8614M153.051 62.8614L157.077 65.7002L161.102 62.8614M161.102 62.8614L165.127 60.0225L169.153 62.8614M161.102 62.8614L165.127 65.7002L169.153 62.8614M169.153 62.8614L173.178 60.0225L177.204 62.8614M169.153 62.8614L173.178 65.7002L177.204 62.8614" stroke="#633403"/>
<path d="M185.486 64.2324L183.358 58.8636M181.229 10.5446L183.358 15.9134M181.229 64.2324L183.358 58.8636M185.486 10.5446L183.358 15.9134M183.358 58.8636L181.229 53.4949L183.358 48.1261M183.358 58.8636L185.486 53.4949L183.358 48.1261M183.358 48.1261L181.229 42.7573L183.358 37.3885M183.358 48.1261L185.486 42.7573L183.358 37.3885M183.358 37.3885L181.229 32.0197L183.358 26.6509M183.358 37.3885L185.486 32.0197L183.358 26.6509M183.358 26.6509L181.229 21.2822L183.358 15.9134M183.358 26.6509L185.486 21.2822L183.358 15.9134" stroke="#633403"/>
<path d="M6.08154 62.1084L8.21007 56.7396M10.3386 62.1084L8.21007 56.7396M8.21007 56.7396L6.08154 51.3708L8.21007 46.0021M8.21007 56.7396L10.3386 51.3708L8.21007 46.0021M8.21007 46.0021L6.08154 40.6333L8.21007 35.2645M8.21007 46.0021L10.3386 40.6333L8.21007 35.2645M8.21007 35.2645L6.08154 29.8957L8.21007 24.5269M8.21007 35.2645L10.3386 29.8957L8.21007 24.5269M8.21007 24.5269L6.08154 19.1581L8.21007 13.7893L10.3386 19.1581L8.21007 24.5269Z" stroke="#633403"/>
</svg>
