<svg width="23" height="20" viewBox="0 0 23 20" fill="none" xmlns="http://www.w3.org/2000/svg">
<path d="M1.55301 8.71653C8.54301 5.64153 17.588 1.89253 18.837 1.37353C22.112 0.0155333 23.117 0.275533 22.616 3.28353C22.256 5.44553 21.218 12.6025 20.39 17.0575C19.899 19.6995 18.797 20.0125 17.065 18.8695C16.232 18.3195 12.027 15.5385 11.114 14.8855C10.281 14.2905 9.13201 13.5745 10.573 12.1645C11.086 11.6625 14.447 8.45253 17.066 5.95453C17.409 5.62653 16.978 5.08753 16.582 5.35053C13.052 7.69153 8.15801 10.9405 7.53501 11.3635C6.59401 12.0025 5.69001 12.2955 4.06801 11.8295C2.84201 11.4775 1.64501 11.0575 1.17901 10.8975C-0.61599 10.2815 -0.18999 9.48353 1.55301 8.71653Z" fill="white"/>
</svg>
