<svg width="1439" height="14" viewBox="0 0 1439 14" fill="none" xmlns="http://www.w3.org/2000/svg">
<path d="M-6 12L28.5714 7M1446 2L1411.43 7M-6 2L28.5714 7M1446 12L1411.43 7M28.5714 7L63.1429 2L97.7143 7M28.5714 7L63.1429 12L97.7143 7M97.7143 7L132.286 2L166.857 7M97.7143 7L132.286 12L166.857 7M166.857 7L201.429 2L236 7M166.857 7L201.429 12L236 7M236 7L270.571 2L305.143 7M236 7L270.571 12L305.143 7M305.143 7L339.714 2L374.286 7M305.143 7L339.714 12L374.286 7M374.286 7L408.857 2L443.429 7M374.286 7L408.857 12L443.429 7M443.429 7L478 2L512.571 7M443.429 7L478 12L512.571 7M512.571 7L547.143 2L581.714 7M512.571 7L547.143 12L581.714 7M581.714 7L616.286 2L650.857 7M581.714 7L616.286 12L650.857 7M650.857 7L685.429 2L720 7M650.857 7L685.429 12L720 7M720 7L754.571 2L789.143 7M720 7L754.571 12L789.143 7M789.143 7L823.714 2L858.286 7M789.143 7L823.714 12L858.286 7M858.286 7L892.857 2L927.429 7M858.286 7L892.857 12L927.429 7M927.429 7L962 2L996.571 7M927.429 7L962 12L996.571 7M996.571 7L1031.14 2L1065.71 7M996.571 7L1031.14 12L1065.71 7M1065.71 7L1100.29 2L1134.86 7M1065.71 7L1100.29 12L1134.86 7M1134.86 7L1169.43 2L1204 7M1134.86 7L1169.43 12L1204 7M1204 7L1238.57 2L1273.14 7M1204 7L1238.57 12L1273.14 7M1273.14 7L1307.71 2L1342.29 7M1273.14 7L1307.71 12L1342.29 7M1342.29 7L1376.86 2L1411.43 7M1342.29 7L1376.86 12L1411.43 7" stroke="white" stroke-width="2"/>
</svg>
