<svg width="32" height="34" viewBox="0 0 32 34" fill="none" xmlns="http://www.w3.org/2000/svg">
<path d="M7.48582 34V30.2222H14.4238V24.3667C13.0073 24.0204 11.7426 23.3671 10.6296 22.4069C9.51662 21.4468 8.69997 20.2426 8.17962 18.7944C6.0115 18.5111 4.19751 17.4801 2.73765 15.7014C1.27778 13.9227 0.547852 11.837 0.547852 9.44444V7.55556C0.547852 6.51667 0.887523 5.62732 1.56687 4.8875C2.24621 4.14769 3.06287 3.77778 4.01684 3.77778H7.48582V0H24.8307V3.77778H28.2997C29.2537 3.77778 30.0704 4.14769 30.7497 4.8875C31.4291 5.62732 31.7687 6.51667 31.7687 7.55556V9.44444C31.7687 11.837 31.0388 13.9227 29.5789 15.7014C28.1191 17.4801 26.3051 18.5111 24.137 18.7944C23.6166 20.2426 22.7999 21.4468 21.687 22.4069C20.574 23.3671 19.3093 24.0204 17.8928 24.3667V30.2222H24.8307V34H7.48582ZM7.48582 14.7333V7.55556H4.01684V9.44444C4.01684 10.6407 4.33483 11.719 4.97081 12.6792C5.60679 13.6394 6.44513 14.3241 7.48582 14.7333ZM16.1583 20.7778C17.6037 20.7778 18.8323 20.2269 19.8441 19.125C20.8559 18.0231 21.3618 16.6852 21.3618 15.1111V3.77778H10.9548V15.1111C10.9548 16.6852 11.4607 18.0231 12.4725 19.125C13.4843 20.2269 14.7129 20.7778 16.1583 20.7778ZM24.8307 14.7333C25.8714 14.3241 26.7098 13.6394 27.3458 12.6792C27.9817 11.719 28.2997 10.6407 28.2997 9.44444V7.55556H24.8307V14.7333Z" fill="black"/>
</svg>
