<svg width="26" height="53" viewBox="0 0 26 53" fill="none" xmlns="http://www.w3.org/2000/svg">
<path d="M0.547852 0H25.3409V20.8025C25.3409 21.8183 25.1343 22.7237 24.7211 23.5187C24.3079 24.3137 23.7293 24.9542 22.9856 25.44L14.184 31.005L15.9195 37.1H25.3409L17.6551 42.93L20.6302 53L12.9444 46.7725L5.25853 53L8.2337 42.93L0.547852 37.1H9.96921L11.7047 31.005L2.90319 25.44C2.1594 24.9542 1.5809 24.3137 1.16768 23.5187C0.75446 22.7237 0.547852 21.8183 0.547852 20.8025V0ZM5.50646 5.3V20.8025L10.4651 23.9825V5.3H5.50646ZM20.3823 5.3H15.4237V23.9825L20.3823 20.8025V5.3Z" fill="black"/>
</svg>
