<svg width="48" height="48" viewBox="0 0 48 48" fill="none" xmlns="http://www.w3.org/2000/svg">
<path d="M24 4C12.954 4 4 12.954 4 24C4 32.887 9.801 40.411 17.82 43.016H30.18C38.199 40.411 44 32.887 44 24C44 12.954 35.046 4 24 4Z" fill="url(#paint0_linear_90_307)"/>
<path opacity="0.05" d="M30.01 41.9959L30 36.1979C30 35.2589 29.78 34.3419 29.358 33.5109C34.999 32.3779 37.744 29.0429 37.744 23.3339C37.744 21.0789 37.079 19.0879 35.768 17.4139C35.868 17.0969 35.942 16.7689 35.988 16.4329C36.176 15.0639 35.965 14.1689 35.795 13.4489L35.768 13.3329C35.582 12.5369 35.359 11.9689 35.35 11.9449L35.239 11.6629L35.128 11.3809L34.826 11.3489L34.523 11.3169C34.523 11.3169 34.324 11.2959 34.022 11.2959C33.603 11.2959 32.982 11.3379 32.395 11.5369L32.199 11.6029C31.459 11.8519 30.76 12.0879 29.782 12.6719C29.496 12.8429 29.183 13.0379 28.848 13.2559C27.334 12.8809 25.705 12.6899 24 12.6899C22.278 12.6899 20.635 12.8819 19.111 13.2609C18.772 13.0409 18.457 12.8439 18.169 12.6719C17.191 12.0879 16.492 11.8529 15.752 11.6029L15.556 11.5369C14.971 11.3379 14.349 11.2959 13.93 11.2959C13.628 11.2959 13.429 11.3169 13.429 11.3169L13.127 11.3489L12.827 11.3799L12.715 11.6609L12.602 11.9439C12.592 11.9699 12.369 12.5379 12.183 13.3349L12.156 13.4499C11.986 14.1689 11.775 15.0649 11.963 16.4329C12.011 16.7789 12.088 17.1179 12.193 17.4439C10.908 19.1099 10.257 21.0899 10.257 23.3339C10.257 29.0289 13.005 32.3619 18.654 33.5039C18.46 33.8919 18.309 34.3019 18.202 34.7279C18.005 34.7949 17.824 34.8399 17.664 34.8649C17.426 34.9009 17.177 34.9189 16.925 34.9189C16.239 34.9189 15.7 34.7849 15.49 34.6599C15.177 34.4739 14.618 33.9329 14.076 33.1419C13.613 32.4669 12.891 31.5839 12.084 31.2149C11.386 30.8959 10.647 30.7129 10.055 30.7129C9.91702 30.7129 9.79002 30.7229 9.67902 30.7409C9.16202 30.8229 8.73002 31.1069 8.49502 31.5209C8.29202 31.8779 8.26002 32.2939 8.40702 32.6619C8.62602 33.2099 9.25802 33.6469 9.75002 33.9169C9.99202 34.0499 10.515 34.5359 10.82 35.0259C11.049 35.3939 11.155 35.6559 11.302 36.0179C11.389 36.2329 11.485 36.4669 11.615 36.7499C12.085 37.7719 13.552 38.6739 13.718 38.7729C14.524 39.2559 15.879 39.4109 16.875 39.4559L16.998 39.4589H16.999C17.239 39.4589 17.569 39.4359 18.003 39.3879V42.0009C18.005 42.5299 17.466 42.6499 16.753 42.6389L17.3 42.8229C19.395 43.5719 21.645 43.9999 24 43.9999C26.355 43.9999 28.605 43.5719 30.703 42.8239L31.406 42.5619C30.695 42.5379 30.016 42.4219 30.01 41.9959Z" fill="black"/>
<path opacity="0.07" d="M30.781 42.7969C30.375 42.8439 29.5 42.6879 29.5 42.0019V36.1979C29.5 35.1039 29.172 34.0469 28.564 33.1459C34.479 32.1889 37.243 29.0529 37.243 23.3339C37.243 21.0969 36.557 19.1399 35.204 17.5119C35.341 17.1469 35.437 16.7619 35.492 16.3649C35.667 15.0889 35.476 14.2789 35.308 13.5639L35.281 13.4479C35.103 12.6869 34.893 12.1509 34.884 12.1289L34.773 11.8469L34.47 11.8149C34.47 11.8149 34.292 11.7959 34.021 11.7959C33.64 11.7959 33.077 11.8329 32.555 12.0109L32.359 12.0769C31.645 12.3179 30.97 12.5449 30.038 13.1009C29.706 13.2989 29.336 13.5319 28.937 13.7949C27.404 13.3939 25.745 13.1899 24 13.1899C22.238 13.1899 20.565 13.3949 19.021 13.7999C18.618 13.5349 18.246 13.3009 17.912 13.1009C16.98 12.5449 16.305 12.3169 15.591 12.0769L15.395 12.0109C14.874 11.8339 14.31 11.7959 13.929 11.7959C13.658 11.7959 13.48 11.8149 13.48 11.8149L13.178 11.8469L13.065 12.1299C13.056 12.1519 12.846 12.6879 12.668 13.4489L12.641 13.5649C12.472 14.2799 12.281 15.0889 12.457 16.3649C12.513 16.7719 12.613 17.1659 12.755 17.5389C11.428 19.1589 10.756 21.1059 10.756 23.3339C10.756 29.0369 13.522 32.1719 19.442 33.1399C19.047 33.7299 18.771 34.3949 18.629 35.1039C18.299 35.2339 18 35.3199 17.738 35.3599C17.475 35.3999 17.201 35.4199 16.924 35.4199C16.234 35.4199 15.571 35.2909 15.234 35.0909C14.794 34.8299 14.177 34.1769 13.662 33.4259C13.312 32.9159 12.615 32.0089 11.874 31.6709C11.239 31.3809 10.576 31.2139 10.053 31.2139C9.94299 31.2139 9.84299 31.2219 9.75499 31.2359C9.38899 31.2939 9.08699 31.4879 8.92699 31.7699C8.79899 31.9939 8.77799 32.2529 8.86799 32.4779C9.04699 32.9259 9.70999 33.3279 9.98699 33.4799C10.322 33.6639 10.906 34.2239 11.241 34.7639C11.492 35.1679 11.611 35.4609 11.762 35.8309C11.847 36.0399 11.94 36.2679 12.066 36.5429C12.397 37.2619 13.419 38.0149 13.971 38.3459C14.725 38.7979 16.125 38.9239 16.893 38.9579L17.004 38.9599C17.303 38.9599 17.804 38.9149 18.499 38.8249V42.0019C18.499 42.7809 17.508 42.8119 17.265 42.8119C17.234 42.8119 17.768 42.9959 17.768 42.9959C19.731 43.6399 21.822 43.9999 24 43.9999C26.178 43.9999 28.269 43.6399 30.231 42.9969C30.231 42.9969 30.812 42.7929 30.781 42.7969Z" fill="black"/>
<path d="M36.7438 23.334C36.7438 21.024 35.9618 19.108 34.6268 17.606C34.7718 17.281 34.9228 16.845 34.9978 16.297C35.1698 15.047 34.9668 14.297 34.7948 13.563C34.6228 12.829 34.4198 12.313 34.4198 12.313C34.4198 12.313 33.4978 12.219 32.7168 12.485C31.9358 12.751 31.2638 12.954 30.2948 13.532C29.8418 13.802 29.3858 14.098 29.0248 14.338C27.4818 13.91 25.7848 13.69 23.9998 13.69C22.1988 13.69 20.4868 13.911 18.9328 14.342C18.5708 14.101 18.1118 13.803 17.6558 13.531C16.6868 12.953 16.0148 12.75 15.2338 12.484C14.4528 12.218 13.5308 12.312 13.5308 12.312C13.5308 12.312 13.3278 12.828 13.1558 13.562C12.9838 14.296 12.7808 15.046 12.9528 16.296C13.0298 16.858 13.1858 17.302 13.3348 17.629C12.0248 19.122 11.2568 21.026 11.2568 23.333C11.2568 29.316 14.4888 32.047 20.3778 32.768C19.6908 33.494 19.2298 34.424 19.0748 35.459C18.6878 35.629 18.2418 35.789 17.8128 35.853C16.7088 36.02 15.5418 35.853 14.9798 35.52C14.4178 35.187 13.7508 34.437 13.2508 33.707C12.8288 33.091 12.2198 32.376 11.6678 32.124C10.9388 31.791 10.2298 31.666 9.83479 31.728C9.43879 31.791 9.25179 32.082 9.33479 32.291C9.41779 32.499 9.81379 32.812 10.2308 33.041C10.6478 33.27 11.2938 33.895 11.6688 34.499C12.0868 35.173 12.1688 35.562 12.5228 36.332C12.7718 36.874 13.6238 37.551 14.2308 37.915C14.7518 38.228 15.7928 38.406 16.9188 38.457C17.3078 38.475 18.2268 38.361 19.0018 38.251V42.001C19.0018 42.64 18.4168 43.126 17.8108 43.014C19.7558 43.668 21.8328 44 23.9998 44C26.1658 44 28.2428 43.668 30.1898 43.016C29.5848 43.127 28.9998 42.641 28.9998 42.002V36.198C28.9998 34.869 28.4728 33.668 27.6268 32.773C33.4728 32.071 36.7438 29.405 36.7438 23.334ZM11.2388 32.727C11.0848 32.648 11.0018 32.502 11.0538 32.399C11.1058 32.296 11.2738 32.277 11.4278 32.356C11.5818 32.435 11.6648 32.581 11.6128 32.684C11.5608 32.787 11.3928 32.806 11.2388 32.727ZM12.4508 33.482C12.3698 33.57 12.1958 33.542 12.0618 33.42C11.9278 33.298 11.8848 33.127 11.9658 33.039C12.0468 32.951 12.2208 32.979 12.3548 33.101C12.4888 33.223 12.5318 33.394 12.4508 33.482ZM13.2048 34.732C13.1028 34.804 12.9298 34.737 12.8188 34.582C12.7078 34.427 12.7008 34.242 12.8028 34.17C12.9048 34.098 13.0778 34.165 13.1888 34.32C13.2988 34.475 13.3068 34.66 13.2048 34.732ZM14.2878 35.673C14.2188 35.785 14.0228 35.79 13.8508 35.685C13.6788 35.58 13.5948 35.404 13.6638 35.292C13.7328 35.18 13.9288 35.175 14.1008 35.28C14.2728 35.385 14.3568 35.561 14.2878 35.673ZM15.3118 36.594C15.0988 36.568 14.9408 36.435 14.9588 36.297C14.9758 36.159 15.1628 36.069 15.3748 36.095C15.5878 36.121 15.7458 36.254 15.7278 36.392C15.7108 36.529 15.5248 36.62 15.3118 36.594ZM16.9628 36.833C16.7358 36.82 16.5588 36.69 16.5678 36.544C16.5768 36.398 16.7678 36.289 16.9948 36.302C17.2218 36.315 17.3988 36.445 17.3898 36.591C17.3808 36.738 17.1898 36.846 16.9628 36.833ZM18.5208 36.677C18.2788 36.677 18.0828 36.551 18.0828 36.396C18.0828 36.241 18.2788 36.115 18.5208 36.115C18.7628 36.115 18.9588 36.241 18.9588 36.396C18.9588 36.551 18.7618 36.677 18.5208 36.677Z" fill="white"/>
<defs>
<linearGradient id="paint0_linear_90_307" x1="4" y1="23.508" x2="44" y2="23.508" gradientUnits="userSpaceOnUse">
<stop stop-color="#4C4C4C"/>
<stop offset="1" stop-color="#343434"/>
</linearGradient>
</defs>
</svg>
